<?xml version="1.0" encoding="UTF-8"?>
<!--
  catat logo — paper-tab style with the BrandGlyph + wordmark + tagline.
  Used as the OpenGraph share image (1200x630 standard) so links to
  catat-walrus.vercel.app render with the brand on Twitter/Discord/etc.
-->
<svg xmlns="http://www.w3.org/2000/svg" viewBox="0 0 1200 630" width="1200" height="630">
  <!-- paper background with subtle off-cream variation -->
  <defs>
    <pattern id="grain" patternUnits="userSpaceOnUse" width="200" height="200">
      <rect width="200" height="200" fill="#f4ecd6"/>
      <circle cx="20" cy="40" r="0.6" fill="#e9dfc1" opacity="0.6"/>
      <circle cx="120" cy="80" r="0.5" fill="#dccfa8" opacity="0.4"/>
      <circle cx="60" cy="160" r="0.5" fill="#e9dfc1" opacity="0.6"/>
      <circle cx="180" cy="120" r="0.4" fill="#dccfa8" opacity="0.4"/>
    </pattern>
  </defs>
  <rect width="1200" height="630" fill="url(#grain)"/>

  <!-- horizontal ruled lines (Walrus blue notebook ruling) -->
  <g stroke="#1f6fb2" stroke-width="0.6" opacity="0.18">
    <line x1="0" y1="80"  x2="1200" y2="80"/>
    <line x1="0" y1="160" x2="1200" y2="160"/>
    <line x1="0" y1="240" x2="1200" y2="240"/>
    <line x1="0" y1="320" x2="1200" y2="320"/>
    <line x1="0" y1="400" x2="1200" y2="400"/>
    <line x1="0" y1="480" x2="1200" y2="480"/>
    <line x1="0" y1="560" x2="1200" y2="560"/>
  </g>
  <!-- red margin line -->
  <line x1="120" y1="0" x2="120" y2="630" stroke="#7fb6dd" stroke-width="2"/>

  <!-- brand glyph card (rotated, ink + walrus blue shadow) -->
  <g transform="translate(180 240) rotate(-3)">
    <rect x="8" y="10" width="120" height="120" rx="22" fill="#1f6fb2"/>
    <rect x="0" y="0" width="120" height="120" rx="22" fill="#211b14"/>
    <g stroke="#f4ecd6" stroke-width="9" stroke-linecap="round" stroke-linejoin="round" fill="none">
      <path d="M88 36A36 36 0 1 0 88 84"/>
      <path d="M52 56l11 11L88 41"/>
    </g>
  </g>

  <!-- wordmark + tagline -->
  <g font-family="Caveat, 'Patrick Hand', cursive" fill="#211b14">
    <text x="340" y="320" font-size="160" font-weight="700">catat</text>
    <text x="340" y="380" font-size="36" font-weight="400" fill="#3a3128" font-family="'Atkinson Hyperlegible', system-ui, sans-serif">
      Walrus-native form &amp; feedback platform
    </text>
    <text x="340" y="430" font-size="22" fill="#6b665e" font-family="'Special Elite', monospace" letter-spacing="2">
      WALRUS · SUI · SEAL · ON-CHAIN PROOF
    </text>
  </g>

  <!-- corner stamp -->
  <g transform="translate(960 110) rotate(8)">
    <rect x="0" y="0" width="200" height="60" rx="4" fill="#1f6fb2"/>
    <text x="100" y="38" font-family="'Special Elite', monospace" font-size="22" font-weight="700"
          fill="#f4ecd6" text-anchor="middle" letter-spacing="3">PUBLISHED</text>
  </g>
</svg>
